<!DOCTYPE svg PUBLIC "-//W3C//DTD SVG 1.1//EN" "http://www.w3.org/Graphics/SVG/1.1/DTD/svg11.dtd">

<!-- Uploaded to: SVG Repo, www.svgrepo.com, Transformed by: SVG Repo Mixer Tools -->
<svg width="103px" height="103px" viewBox="0 0 24.00 24.00" fill="none" xmlns="http://www.w3.org/2000/svg" stroke="grey" stroke-width="0.00024000000000000003"><g id="SVGRepo_bgCarrier" stroke-width="0"></g><g id="SVGRepo_tracerCarrier" stroke-linecap="round" stroke-linejoin="round"></g><g id="SVGRepo_iconCarrier"> <path fill-rule="evenodd" clip-rule="evenodd" d="M10 5.5C7.51472 5.5 5.5 7.51472 5.5 10C5.5 12.4853 7.51472 14.5 10 14.5C10.7763 14.5 11.5046 14.3041 12.1403 13.9596C12.5244 13.7514 12.8751 13.4888 13.182 13.182C13.4888 12.8751 13.7514 12.5244 13.9596 12.1403C14.3041 11.5046 14.5 10.7763 14.5 10C14.5 7.51472 12.4853 5.5 10 5.5ZM4 10C4 6.68629 6.68629 4 10 4C13.3137 4 16 6.68629 16 10C16 11.032 15.7388 12.0052 15.2784 12.855C15.1212 13.145 14.9409 13.4206 14.7399 13.6792L20.003 18.9423L18.9423 20.003L13.6792 14.7399C13.4206 14.9408 13.1451 15.1212 12.855 15.2784C12.0052 15.7388 11.032 16 10 16C6.68629 16 4 13.3137 4 10Z" fill="#878787"></path> </g></svg>